<svg width="801" height="610" viewBox="0 0 801 610" fill="none" xmlns="http://www.w3.org/2000/svg">
<path d="M677.249 50.5455C625.384 26.7401 570.65 9.76502 514.416 0.0454882C513.903 -0.0544132 513.372 0.0111966 512.898 0.232861C512.425 0.454526 512.034 0.820787 511.783 1.27882C504.783 13.7788 496.983 30.0788 491.516 42.9455C430.897 33.7383 369.235 33.7383 308.616 42.9455C302.532 28.6889 295.666 14.7788 288.049 1.27882C287.787 0.831044 287.394 0.473463 286.924 0.25327C286.454 0.0330775 285.928 -0.0393714 285.416 0.0454882C229.178 9.74482 174.44 26.7207 122.583 50.5455C122.144 50.7296 121.771 51.0437 121.516 51.4455C17.7827 206.412 -10.6506 357.545 3.31602 506.779C3.34995 507.149 3.45909 507.509 3.63677 507.835C3.81444 508.162 4.05692 508.449 4.34935 508.679C64.7359 553.419 132.286 587.572 204.116 609.679C204.622 609.825 205.161 609.815 205.661 609.648C206.161 609.481 206.599 609.167 206.916 608.745C222.358 587.762 236.028 565.529 247.783 542.279C247.947 541.961 248.041 541.611 248.06 541.254C248.079 540.896 248.022 540.539 247.893 540.205C247.764 539.871 247.566 539.569 247.311 539.317C247.056 539.065 246.751 538.871 246.416 538.746C224.863 530.498 203.998 520.556 184.016 509.012C183.65 508.8 183.341 508.501 183.119 508.142C182.896 507.782 182.766 507.373 182.739 506.95C182.713 506.528 182.791 506.106 182.967 505.721C183.144 505.336 183.412 505.001 183.749 504.746C187.957 501.597 192.092 498.352 196.149 495.012C196.504 494.724 196.932 494.541 197.385 494.482C197.839 494.423 198.299 494.491 198.716 494.679C329.649 554.446 471.383 554.446 600.783 494.679C601.204 494.484 601.671 494.413 602.131 494.472C602.59 494.531 603.024 494.718 603.383 495.012C607.383 498.279 611.583 501.612 615.816 504.746C616.149 504.997 616.416 505.326 616.593 505.704C616.771 506.082 616.853 506.498 616.833 506.915C616.813 507.332 616.692 507.738 616.48 508.098C616.268 508.457 615.971 508.76 615.616 508.979C595.679 520.631 574.794 530.577 553.183 538.712C552.846 538.841 552.541 539.039 552.286 539.294C552.031 539.549 551.833 539.854 551.704 540.191C551.575 540.527 551.518 540.887 551.538 541.247C551.557 541.606 551.652 541.958 551.816 542.279C563.816 565.545 577.549 587.679 592.649 608.712C592.96 609.141 593.397 609.461 593.899 609.629C594.402 609.796 594.944 609.802 595.449 609.646C667.399 587.607 735.059 553.45 795.516 508.646C795.81 508.437 796.057 508.169 796.241 507.859C796.425 507.549 796.541 507.204 796.583 506.846C813.249 334.279 768.649 184.379 678.283 51.5122C678.072 51.0641 677.704 50.7418 677.249 50.5455ZM267.349 415.879C227.916 415.879 195.449 379.712 195.449 335.246C195.449 290.812 227.316 254.612 267.349 254.612C307.683 254.612 339.883 291.145 339.249 335.279C339.249 379.712 307.383 415.879 267.349 415.879ZM533.183 415.879C493.749 415.879 461.283 379.712 461.283 335.246C461.283 290.812 493.116 254.612 533.183 254.612C573.516 254.612 605.716 291.145 605.083 335.279C605.083 379.712 573.549 415.879 533.183 415.879Z" fill="#666666"/>
</svg>
