<svg width="591" height="734" viewBox="0 0 591 734" fill="none" xmlns="http://www.w3.org/2000/svg">
<rect width="591" height="733.318" rx="82" fill="url(#paint0_linear_3_17)"/>
<g filter="url(#filter0_d_3_17)">
<path d="M83.2171 163C83.2171 140.909 101.126 123 123.217 123H422C444.091 123 462 140.909 462 163V413.712C462 435.803 444.091 453.712 422 453.712H123.217C101.126 453.712 83.2171 435.804 83.2171 413.712V163Z" fill="url(#paint1_linear_3_17)"/>
</g>
<path d="M159.695 215.523H166.656C170.422 215.523 173.133 215.875 174.789 216.578C176.461 217.266 177.773 218.391 178.727 219.953C179.695 221.5 180.18 223.359 180.18 225.531C180.18 227.938 179.547 229.938 178.281 231.531C177.031 233.125 175.328 234.234 173.172 234.859C171.906 235.219 169.602 235.398 166.258 235.398V250H159.695V215.523ZM166.258 229H168.344C169.984 229 171.125 228.883 171.766 228.648C172.406 228.414 172.906 228.031 173.266 227.5C173.641 226.953 173.828 226.297 173.828 225.531C173.828 224.203 173.312 223.234 172.281 222.625C171.531 222.172 170.141 221.945 168.109 221.945H166.258V229ZM197.898 223.844C200.305 223.844 202.562 224.445 204.672 225.648C206.797 226.852 208.453 228.484 209.641 230.547C210.828 232.609 211.422 234.836 211.422 237.227C211.422 239.633 210.82 241.883 209.617 243.977C208.43 246.07 206.805 247.711 204.742 248.898C202.68 250.07 200.406 250.656 197.922 250.656C194.266 250.656 191.141 249.359 188.547 246.766C185.969 244.156 184.68 240.992 184.68 237.273C184.68 233.289 186.141 229.969 189.062 227.312C191.625 225 194.57 223.844 197.898 223.844ZM197.992 229.867C196.008 229.867 194.352 230.562 193.023 231.953C191.711 233.328 191.055 235.094 191.055 237.25C191.055 239.469 191.703 241.266 193 242.641C194.312 244.016 195.969 244.703 197.969 244.703C199.969 244.703 201.633 244.008 202.961 242.617C204.289 241.227 204.953 239.438 204.953 237.25C204.953 235.062 204.297 233.289 202.984 231.93C201.688 230.555 200.023 229.867 197.992 229.867ZM232.281 228.062L228.32 232.023C226.711 230.43 225.25 229.633 223.938 229.633C223.219 229.633 222.656 229.789 222.25 230.102C221.844 230.398 221.641 230.773 221.641 231.227C221.641 231.57 221.766 231.891 222.016 232.188C222.281 232.469 222.922 232.859 223.938 233.359L226.281 234.531C228.75 235.75 230.445 236.992 231.367 238.258C232.289 239.523 232.75 241.008 232.75 242.711C232.75 244.977 231.914 246.867 230.242 248.383C228.586 249.898 226.359 250.656 223.562 250.656C219.844 250.656 216.875 249.203 214.656 246.297L218.594 242.008C219.344 242.883 220.219 243.594 221.219 244.141C222.234 244.672 223.133 244.938 223.914 244.938C224.758 244.938 225.438 244.734 225.953 244.328C226.469 243.922 226.727 243.453 226.727 242.922C226.727 241.938 225.797 240.977 223.938 240.039L221.781 238.961C217.656 236.883 215.594 234.281 215.594 231.156C215.594 229.141 216.367 227.422 217.914 226C219.477 224.562 221.469 223.844 223.891 223.844C225.547 223.844 227.102 224.211 228.555 224.945C230.023 225.664 231.266 226.703 232.281 228.062ZM238.586 215.102H244.961V224.5H248.758V230.008H244.961V250H238.586V230.008H235.305V224.5H238.586V215.102ZM271.047 224.5H277.422V246.344C277.422 250.656 276.555 253.828 274.82 255.859C272.492 258.609 268.984 259.984 264.297 259.984C261.797 259.984 259.695 259.672 257.992 259.047C256.289 258.422 254.852 257.5 253.68 256.281C252.508 255.078 251.641 253.609 251.078 251.875H258.133C258.758 252.594 259.562 253.133 260.547 253.492C261.531 253.867 262.695 254.055 264.039 254.055C265.758 254.055 267.141 253.789 268.188 253.258C269.234 252.727 269.969 252.039 270.391 251.195C270.828 250.352 271.047 248.898 271.047 246.836C269.922 247.961 268.742 248.773 267.508 249.273C266.273 249.758 264.875 250 263.312 250C259.891 250 257 248.766 254.641 246.297C252.281 243.828 251.102 240.703 251.102 236.922C251.102 232.875 252.352 229.625 254.852 227.172C257.117 224.953 259.82 223.844 262.961 223.844C264.43 223.844 265.812 224.117 267.109 224.664C268.422 225.195 269.734 226.078 271.047 227.312V224.5ZM264.414 229.82C262.398 229.82 260.734 230.5 259.422 231.859C258.109 233.203 257.453 234.898 257.453 236.945C257.453 239.07 258.125 240.812 259.469 242.172C260.812 243.531 262.5 244.211 264.531 244.211C266.516 244.211 268.148 243.547 269.43 242.219C270.727 240.891 271.375 239.148 271.375 236.992C271.375 234.867 270.727 233.141 269.43 231.812C268.133 230.484 266.461 229.82 264.414 229.82ZM282.391 224.5H287.875V227.711C288.469 226.445 289.258 225.484 290.242 224.828C291.227 224.172 292.305 223.844 293.477 223.844C294.305 223.844 295.172 224.062 296.078 224.5L294.086 230.008C293.336 229.633 292.719 229.445 292.234 229.445C291.25 229.445 290.414 230.055 289.727 231.273C289.055 232.492 288.719 234.883 288.719 238.445L288.742 239.688V250H282.391V224.5ZM324.812 239.102H304.258C304.555 240.914 305.344 242.359 306.625 243.438C307.922 244.5 309.57 245.031 311.57 245.031C313.961 245.031 316.016 244.195 317.734 242.523L323.125 245.055C321.781 246.961 320.172 248.375 318.297 249.297C316.422 250.203 314.195 250.656 311.617 250.656C307.617 250.656 304.359 249.398 301.844 246.883C299.328 244.352 298.07 241.188 298.07 237.391C298.07 233.5 299.32 230.273 301.82 227.711C304.336 225.133 307.484 223.844 311.266 223.844C315.281 223.844 318.547 225.133 321.062 227.711C323.578 230.273 324.836 233.664 324.836 237.883L324.812 239.102ZM318.391 234.062C317.969 232.641 317.133 231.484 315.883 230.594C314.648 229.703 313.211 229.258 311.57 229.258C309.789 229.258 308.227 229.758 306.883 230.758C306.039 231.383 305.258 232.484 304.539 234.062H318.391ZM348.789 220.211L343.938 224.5C342.234 222.125 340.5 220.938 338.734 220.938C337.875 220.938 337.172 221.172 336.625 221.641C336.078 222.094 335.805 222.609 335.805 223.188C335.805 223.766 336 224.312 336.391 224.828C336.922 225.516 338.523 226.992 341.195 229.258C343.695 231.352 345.211 232.672 345.742 233.219C347.07 234.562 348.008 235.852 348.555 237.086C349.117 238.305 349.398 239.641 349.398 241.094C349.398 243.922 348.422 246.258 346.469 248.102C344.516 249.945 341.969 250.867 338.828 250.867C336.375 250.867 334.234 250.266 332.406 249.062C330.594 247.859 329.039 245.969 327.742 243.391L333.25 240.062C334.906 243.109 336.812 244.633 338.969 244.633C340.094 244.633 341.039 244.305 341.805 243.648C342.57 242.992 342.953 242.234 342.953 241.375C342.953 240.594 342.664 239.812 342.086 239.031C341.508 238.25 340.234 237.055 338.266 235.445C334.516 232.383 332.094 230.023 331 228.367C329.906 226.695 329.359 225.031 329.359 223.375C329.359 220.984 330.266 218.938 332.078 217.234C333.906 215.516 336.156 214.656 338.828 214.656C340.547 214.656 342.18 215.055 343.727 215.852C345.289 216.648 346.977 218.102 348.789 220.211ZM385.281 244.961L391.281 252.719H383.5L380.453 248.805C377.938 250.18 375.133 250.867 372.039 250.867C366.867 250.867 362.57 249.086 359.148 245.523C355.727 241.945 354.016 237.688 354.016 232.75C354.016 229.453 354.812 226.43 356.406 223.68C358 220.914 360.188 218.719 362.969 217.094C365.766 215.469 368.766 214.656 371.969 214.656C376.859 214.656 381.055 216.422 384.555 219.953C388.07 223.484 389.828 227.789 389.828 232.867C389.828 237.539 388.312 241.57 385.281 244.961ZM381.18 239.664C382.57 237.602 383.266 235.32 383.266 232.82C383.266 229.555 382.164 226.781 379.961 224.5C377.758 222.219 375.094 221.078 371.969 221.078C368.75 221.078 366.055 222.188 363.883 224.406C361.711 226.625 360.625 229.445 360.625 232.867C360.625 236.68 361.992 239.695 364.727 241.914C366.867 243.648 369.297 244.516 372.016 244.516C373.578 244.516 375.047 244.211 376.422 243.602L370.258 235.656H378.086L381.18 239.664ZM396.016 215.523H402.578V243.742H412.141V250H396.016V215.523Z" fill="white"/>
<defs>
<filter id="filter0_d_3_17" x="8.6171" y="52.4" width="527.983" height="479.912" filterUnits="userSpaceOnUse" color-interpolation-filters="sRGB">
<feFlood flood-opacity="0" result="BackgroundImageFix"/>
<feColorMatrix in="SourceAlpha" type="matrix" values="0 0 0 0 0 0 0 0 0 0 0 0 0 0 0 0 0 0 127 0" result="hardAlpha"/>
<feOffset dy="4"/>
<feGaussianBlur stdDeviation="37.3"/>
<feComposite in2="hardAlpha" operator="out"/>
<feColorMatrix type="matrix" values="0 0 0 0 0.14902 0 0 0 0 0.168627 0 0 0 0 0.270588 0 0 0 1 0"/>
<feBlend mode="normal" in2="BackgroundImageFix" result="effect1_dropShadow_3_17"/>
<feBlend mode="normal" in="SourceGraphic" in2="effect1_dropShadow_3_17" result="shape"/>
</filter>
<linearGradient id="paint0_linear_3_17" x1="603.338" y1="368.097" x2="2.54996e-06" y2="368.097" gradientUnits="userSpaceOnUse">
<stop stop-color="#262B45"/>
<stop offset="1" stop-color="#46518A"/>
</linearGradient>
<linearGradient id="paint1_linear_3_17" x1="617.129" y1="289.014" x2="208.932" y2="293.85" gradientUnits="userSpaceOnUse">
<stop stop-color="#94A0E0"/>
<stop offset="1" stop-color="#6371B8"/>
</linearGradient>
</defs>
</svg>
