<svg width="800" height="800" viewBox="0 0 800 800" fill="none" xmlns="http://www.w3.org/2000/svg">
<g clip-path="url(#clip0_1_3)">
<rect x="61" y="60" width="675" height="649" fill="#666666"/>
<path fill-rule="evenodd" clip-rule="evenodd" d="M0 0V800H800V0H0ZM676.596 177.02L582.604 629.127C580.39 639.801 567.873 644.638 559.042 638.221L430.734 545.067C422.945 539.411 412.324 539.712 404.867 545.792L333.728 603.78C325.473 610.532 313.032 606.769 309.871 596.601L260.475 437.742L132.856 390.113C119.893 385.257 119.782 366.956 132.709 361.976L656.457 159.928C667.56 155.634 679.015 165.361 676.596 177.02Z" fill="white"/>
<path fill-rule="evenodd" clip-rule="evenodd" d="M551.327 258.776L301.913 412.389C292.353 418.287 287.854 429.832 290.938 440.64L317.904 535.393C319.822 542.106 329.563 541.421 330.497 534.484L337.505 482.523C338.829 472.74 343.494 463.722 350.731 456.99L556.566 265.655C560.42 262.085 555.807 256.025 551.327 258.776Z" fill="#666666"/>
</g>
<defs>
<clipPath id="clip0_1_3">
<rect width="800" height="800" fill="white"/>
</clipPath>
</defs>
</svg>
